<svg width="2580" height="2442" viewBox="0 0 2580 2442" fill="none" xmlns="http://www.w3.org/2000/svg">
<path d="M117 1720.26L698.624 2421.2C698.624 2421.2 796.557 2455.68 945 2356.54L308.625 1573L117 1720.26Z" fill="white" stroke="white" stroke-width="30"/>
<path d="M345 1549.65L989.857 2331L1056 2289.79L387.81 1500L345 1549.65Z" stroke="white" stroke-width="24"/>
<path d="M693.174 1409.51C629.167 1375.39 534.121 1381.08 409 1489.83L1073.55 2269C1073.55 2269 1284.85 2173.18 1234.14 2049.43C1144.5 1830.04 885.769 1512.23 693.174 1409.51Z" fill="#D9D9D9" stroke="white" stroke-width="36"/>
<path d="M2152.02 488.401L2175.55 586.657C2560.17 982.782 2332.09 1538.19 2332.09 1538.19L2438.9 1623C2672.95 1234.11 2480.74 760.587 2480.74 760.587C2177.09 -47.1793 1290.04 26.7712 1290.04 26.7712C1290.04 26.7712 402.997 -47.1793 99.3467 760.587C99.3467 760.587 -93.0609 1234.28 141.184 1623L247.991 1538.19C247.991 1538.19 19.9157 982.782 404.539 586.657L428.06 488.401C428.06 488.401 657.485 151.573 1290.04 151.573C1922.6 151.573 2152.02 488.401 2152.02 488.401Z" stroke="white" stroke-width="49"/>
<path d="M1625 2356.58C1773.44 2455.57 1871.37 2421.24 1871.37 2421.24L2453 1720.27L2261.37 1573L1625 2356.58Z" fill="white" stroke="white" stroke-width="30"/>
<path d="M2181.26 1500L1514 2289.79L1579.86 2331L2224 1549.65L2181.26 1500Z" stroke="white" stroke-width="24"/>
<path d="M1875.81 1407.59C1683.19 1510.3 1424.46 1828.07 1334.81 2047.45C1284.29 2171.18 1495.41 2267 1495.41 2267L2160 1487.89C2034.87 1379.15 1939.82 1373.3 1875.81 1407.59Z" fill="#D9D9D9" stroke="white" stroke-width="36"/>
<path d="M305.223 1500L344.877 1418.26C344.877 1418.26 197.809 1154.6 470 634C470 634 101.945 932.149 305.223 1500Z" fill="#D9D9D9" stroke="white" stroke-width="24"/>
<path d="M2147 634C2419.19 1154.6 2272.12 1418.26 2272.12 1418.26L2311.78 1500C2515.06 932.149 2147 634 2147 634Z" fill="#D9D9D9" stroke="white" stroke-width="24"/>
<path d="M1326.92 194.517V194C1320.75 194 1314.77 194.172 1308.6 194.345C1302.43 194.345 1296.44 194 1290.28 194V194.517C785.524 206.584 530.352 463.949 530.352 463.949L502 561C1106.27 55.9229 1785.77 270.882 2115 561L2086.65 463.949C2086.65 463.949 1831.48 206.584 1326.73 194.517H1326.92Z" stroke="white" stroke-width="30"/>
<path d="M1686.5 944C1665.93 944 1649 959.152 1649 977.575V1056.43C1649 1074.85 1665.93 1090 1686.5 1090C1707.07 1090 1724 1074.85 1724 1056.43V977.575C1724 959.152 1707.07 944 1686.5 944Z" fill="#D9D9D9" stroke="white" stroke-width="30"/>
<path d="M1542 832C1521.15 832 1504 847.185 1504 865.641V1170.36C1504 1188.81 1521.15 1204 1542 1204C1562.85 1204 1580 1188.81 1580 1170.36V865.641C1580 847.185 1562.85 832 1542 832Z" fill="white" stroke="white" stroke-width="30"/>
<path d="M1252.5 667C1231.93 667 1215 682.16 1215 700.593V1334.4C1215 1352.84 1231.93 1368 1252.5 1368C1273.08 1368 1290 1352.84 1290 1334.4V700.593C1290 682.16 1273.08 667 1252.5 667Z" fill="white" stroke="white" stroke-width="30"/>
<path d="M1397.5 749C1376.93 749 1360 764.166 1360 782.608V1251.39C1360 1269.83 1376.93 1285 1397.5 1285C1418.07 1285 1435 1269.83 1435 1251.39V782.608C1435 764.166 1418.07 749 1397.5 749Z" fill="#D9D9D9" stroke="white" stroke-width="30"/>
<path d="M1108 561C1087.15 561 1070 576.174 1070 594.623V1440.37C1070 1458.82 1087.15 1474 1108 1474C1128.85 1474 1146 1458.82 1146 1440.37V594.623C1146 576.174 1128.85 561 1108 561Z" fill="#D9D9D9" stroke="white" stroke-width="30"/>
</svg>
