<svg width="301" height="319" viewBox="0 0 301 319" fill="none" xmlns="http://www.w3.org/2000/svg">
<path d="M10.8672 225.16L79.9426 318.229C79.9426 318.229 91.5735 322.808 109.203 309.644L33.6252 205.607L10.8672 225.16Z" fill="white"/>
<path d="M37.9727 202.47L114.535 306.232L122.388 300.76L43.0554 195.876L37.9727 202.47Z" fill="white"/>
<path d="M79.3689 184.016C71.7676 179.483 60.4802 180.239 45.6211 194.686L124.541 298.196C124.541 298.196 149.635 285.466 143.613 269.027C132.967 239.881 102.241 197.662 79.3689 184.016Z" fill="white"/>
<path d="M252.596 61.5491L255.39 74.5995C301.066 127.213 273.981 200.982 273.981 200.982L286.665 212.247C314.46 160.595 291.633 97.7009 291.633 97.7009C255.573 -9.58688 150.231 0.235253 150.231 0.235253C150.231 0.235253 44.8894 -9.58688 8.82913 97.7009C8.82913 97.7009 -14.0204 160.617 13.7975 212.247L26.4815 200.982C26.4815 200.982 -0.603766 127.213 45.0725 74.5995L47.8658 61.5491C47.8658 61.5491 75.1113 16.8115 150.231 16.8115C225.351 16.8115 252.596 61.5491 252.596 61.5491Z" fill="white"/>
<path d="M189.934 309.644C207.563 322.786 219.194 318.229 219.194 318.229L288.269 225.16L265.511 205.607L189.934 309.644Z" fill="white"/>
<path d="M256.075 195.876L176.742 300.76L184.572 306.232L261.157 202.47L256.075 195.876Z" fill="white"/>
<path d="M219.742 184.016C196.869 197.662 166.144 239.881 155.498 269.027C149.499 285.466 174.569 298.196 174.569 298.196L253.49 194.685C238.631 180.238 227.343 179.46 219.742 184.016Z" fill="white"/>
<path d="M33.2622 195.876L37.9786 185.023C37.9786 185.023 20.4866 150.016 52.8606 80.895C52.8606 80.895 9.08466 120.481 33.2622 195.876Z" fill="white"/>
<path d="M251.957 80.895C284.331 150.016 266.839 185.023 266.839 185.023L271.555 195.876C295.733 120.481 251.957 80.895 251.957 80.895Z" fill="white"/>
<path d="M154.588 22.5345V22.4658C153.855 22.4658 153.145 22.4887 152.413 22.5116C151.68 22.5116 150.97 22.4658 150.238 22.4658V22.5345C90.3203 24.1372 60.0297 58.32 60.0297 58.32L56.6641 71.2101C128.395 4.12664 209.056 32.6772 248.138 71.2101L244.773 58.32C244.773 58.32 214.482 24.1372 154.565 22.5345H154.588Z" fill="white"/>
<path d="M197.304 122.13C194.855 122.13 192.84 124.145 192.84 126.595V137.081C192.84 139.531 194.855 141.546 197.304 141.546C199.754 141.546 201.769 139.531 201.769 137.081V126.595C201.769 124.145 199.754 122.13 197.304 122.13Z" fill="white"/>
<path d="M180.133 107.157C177.683 107.157 175.668 109.172 175.668 111.621V152.055C175.668 154.504 177.683 156.519 180.133 156.519C182.582 156.519 184.597 154.504 184.597 152.055V111.621C184.597 109.172 182.582 107.157 180.133 107.157Z" fill="white"/>
<path d="M145.789 85.2686C143.339 85.2686 141.324 87.2833 141.324 89.7331V173.965C141.324 176.415 143.339 178.43 145.789 178.43C148.239 178.43 150.253 176.415 150.253 173.965V89.7331C150.253 87.2833 148.239 85.2686 145.789 85.2686Z" fill="white"/>
<path d="M162.961 96.2354C160.511 96.2354 158.496 98.2501 158.496 100.7V162.975C158.496 165.425 160.511 167.44 162.961 167.44C165.41 167.44 167.425 165.425 167.425 162.975V100.7C167.425 98.2501 165.41 96.2354 162.961 96.2354Z" fill="white"/>
<path d="M128.59 71.2339C126.14 71.2339 124.125 73.2487 124.125 75.6985V188C124.125 190.45 126.14 192.465 128.59 192.465C131.039 192.465 133.054 190.45 133.054 188V75.6985C133.054 73.2487 131.039 71.2339 128.59 71.2339Z" fill="white"/>
</svg>
